# xmcd
#
# Track frame offsets: 
#        150
#        44385
#        58022
#        81215
#        96948
#        112672
#        127155
#        141224
#        163451
#        177044
#        198909
#        217921
#        232166
#        245949
#
# Disc length: 3573 seconds
#
# Revision: 0
# Processed by: cddbd v1.5.2PL0 Copyright (c) Steve Scherf et al.
# Submitted via: ExactAudioCopyFreeDBPlugin 1.0
#
DISCID=ce0df30e
DTITLE=Andy Polon - New York On 6 Strings A Day
DYEAR=1900
DGENRE=Blues and Ragtime
TTITLE0=Tribute To Dave Van Ronk
TTITLE1=Pallet On Your Floor
TTITLE2=Waterfall
TTITLE3=Andy’s Augmented Rag
TTITLE4=No-Profit Rag
TTITLE5=Just Because Of You
TTITLE6=Parisian Rag
TTITLE7=New St. James Infirmary
TTITLE8=Circular Rag
TTITLE9=Indian Summer
TTITLE10=Home Grown Lovin'
TTITLE11=Come On In
TTITLE12=Man Of Constant Sorrow
TTITLE13=St. Louis Tickle
EXTD=
EXTT0=
EXTT1=
EXTT2=
EXTT3=
EXTT4=
EXTT5=
EXTT6=
EXTT7=
EXTT8=
EXTT9=
EXTT10=
EXTT11=
EXTT12=
EXTT13=
PLAYORDER=
